<svg width="163" height="163" viewBox="0 0 163 163" fill="none" xmlns="http://www.w3.org/2000/svg" xmlns:xlink="http://www.w3.org/1999/xlink">
 <path d="M73.569 75.4792C73.569 73.8262 71.9896 72.0217 68.6658 72.0217C64.4709 72.0217 62.2788 75.223 62.2788 78.03C62.2788 78.0389 64.0365 78.685 68.6457 78.685C71.8202 78.685 73.569 77.4352 73.569 75.4792Z" fill="#FFD00C">
 </path>
 <path d="M36.9984 72.0129C33.6836 72.0129 31.0459 74.6016 31.0459 79.5896C31.0459 84.2657 33.6256 86.3977 36.9984 86.3977C40.0571 86.3977 42.648 84.5776 42.648 79.2042C42.648 73.9778 40.2599 72.0129 36.9984 72.0129Z" fill="#FFD00C">
 </path>
 <path d="M81.4776 0C36.4793 0 0 36.4798 0 81.4787C0 126.477 36.4793 162.957 81.4776 162.957C126.476 162.957 162.955 126.477 162.955 81.4787C162.955 36.4798 126.476 0 81.4776 0ZM36.809 107.802C32.387 107.802 27.1183 105.626 24.8305 102.658C24.8149 102.638 25.6614 98.8598 28.7223 98.8598C29.9298 98.8598 30.8298 99.5281 32.0372 100.107C33.3984 100.76 34.8642 101.297 36.8447 101.297C40.9638 101.297 42.5499 98.5768 42.5499 94.4955V90.9645C41.9685 91.4725 39.6026 93.2079 35.5214 93.2079C27.6619 93.2079 23.3223 86.5803 23.3223 79.4759C23.3223 71.8057 28.0384 65.5033 37.034 65.5033C46.2346 65.5033 50.2869 71.7656 50.2869 80.9195C50.2869 82.5591 50.2869 92.6821 50.2869 92.6821C50.2891 102.734 45.5017 107.802 36.809 107.802ZM68.6836 89.4051C70.4302 89.4051 71.7891 88.9929 72.9342 88.5162C74.0302 88.0617 75.0238 87.5427 76.3627 87.5427C78.9134 87.5427 79.8513 91.1272 79.8424 91.1383C78.4768 93.0698 73.0857 95.8567 68.1735 95.8567C59.4452 95.8567 54.3993 89.688 54.3993 81.345C54.3993 70.4044 61.5415 65.5033 68.3717 65.5033C75.554 65.5033 80.4751 69.442 80.4751 75.4503C80.4751 79.6742 78.1471 83.7532 68.4987 83.7532C64.0054 83.7532 62.0449 83.1829 62.0449 83.1829C62.0449 88.4315 66.2465 89.4051 68.6836 89.4051ZM96.1317 95.899C88.691 95.899 84.8058 90.5568 84.8058 82.4032L84.8682 62.4624C84.8682 59.9272 85.5432 58.1115 86.8954 57.0132C88.2477 55.9149 90.2126 55.3647 92.7901 55.3647C92.7477 55.661 92.7054 56.062 92.6631 56.5699C92.6208 57.0355 92.5896 57.6571 92.5673 58.439C92.545 59.221 92.5339 60.2457 92.5339 61.5111L92.5962 65.5033H101.088C101.088 67.4036 100.56 68.9251 99.5045 70.0658C98.4485 71.2064 96.9493 71.7767 95.0067 71.7767H92.5985L92.5361 80.7747C92.5361 82.548 92.7566 84.2389 93.073 85.4441C93.3893 86.6471 95.0935 89.4496 98.4196 89.4496C100.384 89.4496 101.574 89.1667 102.231 88.9952C102.334 89.3382 102.474 89.884 102.474 90.9422C102.476 93.9297 99.803 95.899 96.1317 95.899ZM107.065 57.4922C107.455 56.757 107.997 56.1823 108.689 55.7701C109.38 55.3602 110.095 55.153 110.833 55.153C111.483 55.153 112.111 55.3246 112.717 55.6721C113.41 56.0196 113.929 56.5164 114.277 57.1669C114.624 57.8174 114.796 58.5103 114.796 59.2455C114.796 60.0252 114.602 60.7626 114.212 61.4554C113.303 62.9725 112.044 63.73 110.443 63.73C109.75 63.73 109.099 63.5785 108.493 63.2755C107.843 62.8856 107.346 62.3777 106.999 61.7472C106.653 61.1212 106.48 60.4373 106.48 59.7021C106.48 58.8779 106.673 58.1427 107.065 57.4922ZM114.161 95.8589C109.919 96.0283 106.558 93.1366 106.558 87.8946L106.622 73.2381C106.622 70.7029 107.297 68.8873 108.649 67.789C110.002 66.6907 111.987 66.1404 114.606 66.1404C114.564 66.4367 114.522 66.8377 114.479 67.3456C114.437 67.8112 114.406 68.4328 114.386 69.2148C114.364 69.9967 114.355 71.0215 114.355 72.2891V86.6783C114.355 88.6432 115.411 89.8373 117.052 89.8373C117.903 89.8373 118.338 89.7236 118.962 89.5543C118.962 89.5543 119.151 90.49 119.151 91.6663C119.149 94.4777 116.832 95.752 114.161 95.8589ZM134.981 72.523C130.579 72.8928 130.178 76.0941 130.178 78.587V89.14C130.178 90.4076 130.187 91.4324 130.212 92.2143C130.232 92.9963 130.263 93.62 130.308 94.0834C130.348 94.5891 130.392 95.3176 130.435 95.5716C127.857 95.5716 125.919 95.5136 124.253 94.2483C122.722 93.0854 122.388 90.7262 122.388 88.1909V79.9526C122.388 77.1234 122.8 74.8109 123.622 73.0153C124.446 71.2197 125.511 69.814 126.823 68.8004C128.131 67.7867 129.601 67.1006 131.228 66.7419C132.854 66.3832 134.469 66.2028 136.075 66.2028H139.181C139.499 66.8934 139.633 68.0652 139.633 68.689C139.631 71.3712 137.456 72.3158 134.981 72.523Z" fill="#FFD00C">
 </path>
 <path d="M80.4776 75.4526C80.4776 69.4443 75.5565 65.5056 68.3743 65.5056C61.5418 65.5056 54.4019 70.4089 54.4019 81.3473C54.4019 89.6903 59.4455 95.8591 68.176 95.8591C73.0882 95.8591 78.4793 93.0743 79.8449 91.1406C79.8538 91.1295 78.916 87.545 76.3652 87.545C75.0241 87.545 74.0327 88.0618 72.9367 88.5185C71.7916 88.993 70.4327 89.4074 68.6862 89.4074C66.249 89.4074 62.0475 88.4339 62.0475 83.1875C62.0475 83.1875 64.0101 83.7578 68.5013 83.7578C78.1496 83.7555 80.4776 79.6743 80.4776 75.4526ZM68.6661 72.0219C71.9921 72.0219 73.5694 73.8264 73.5694 75.4794C73.5694 77.4353 71.8206 78.6851 68.6461 78.6851C64.0369 78.6851 62.2792 78.0391 62.2792 78.0302C62.2792 75.2254 64.4713 72.0219 68.6661 72.0219Z" fill="#5D3EBC">
 </path>
 <path d="M98.4219 89.4519C95.0958 89.4519 93.3916 86.6493 93.0753 85.4463C92.7589 84.2411 92.5384 82.5502 92.5384 80.7769L92.6008 71.779H95.009C96.9516 71.779 98.4531 71.2086 99.5068 70.068C100.563 68.9274 101.091 67.4058 101.091 65.5055H92.5985L92.5362 61.5134C92.5362 60.2458 92.5473 59.2232 92.5696 58.4413C92.5896 57.6593 92.6208 57.0355 92.6654 56.5722C92.7055 56.0665 92.75 55.6655 92.7924 55.3669C90.2148 55.3669 88.25 55.9172 86.8977 57.0155C85.5455 58.1138 84.8705 59.9294 84.8705 62.4646L84.8081 82.4054C84.8081 90.5591 88.6933 95.9013 96.134 95.9013C99.8031 95.9013 102.479 93.9319 102.479 90.9467C102.479 89.8885 102.338 89.3427 102.236 88.9996C101.579 89.169 100.387 89.4519 98.4219 89.4519Z" fill="#5D3EBC">
 </path>
 <path d="M108.494 63.2755C109.1 63.5785 109.75 63.73 110.443 63.73C112.045 63.73 113.301 62.9726 114.212 61.4554C114.602 60.7626 114.796 60.0252 114.796 59.2455C114.796 58.5103 114.622 57.8175 114.277 57.167C113.93 56.5165 113.411 56.0197 112.718 55.6721C112.112 55.3268 111.484 55.1531 110.833 55.1531C110.096 55.1531 109.381 55.358 108.69 55.7702C107.995 56.1823 107.456 56.7571 107.066 57.4922C106.676 58.1427 106.48 58.8801 106.48 59.7022C106.48 60.4374 106.654 61.1213 106.999 61.7473C107.347 62.3755 107.843 62.8834 108.494 63.2755Z" fill="#5D3EBC">
 </path>
 <path d="M117.053 89.835C115.408 89.835 114.355 88.6387 114.355 86.6761V72.2868C114.355 71.0192 114.364 69.9967 114.386 69.2125C114.406 68.4306 114.437 67.8068 114.479 67.3434C114.522 66.8377 114.564 66.4367 114.606 66.1382C111.987 66.1382 110.002 66.6884 108.649 67.7867C107.297 68.885 106.622 70.7007 106.622 73.2359L106.558 87.8924C106.558 93.1344 109.919 96.026 114.161 95.8567C116.832 95.7498 119.149 94.4777 119.149 91.6618C119.149 90.4855 118.959 89.5499 118.959 89.5499C118.338 89.7214 117.901 89.835 117.053 89.835Z" fill="#5D3EBC">
 </path>
 <path d="M136.073 66.2029C134.467 66.2029 132.852 66.3834 131.225 66.742C129.599 67.1007 128.131 67.7869 126.821 68.8005C125.511 69.8141 124.444 71.2199 123.62 73.0154C122.798 74.811 122.386 77.1235 122.386 79.9527V88.191C122.386 90.7263 122.72 93.0877 124.25 94.2484C125.919 95.5137 127.857 95.5717 130.432 95.5717C130.39 95.3177 130.348 94.5914 130.305 94.0835C130.263 93.6179 130.232 92.9964 130.21 92.2144C130.187 91.4325 130.176 90.4077 130.176 89.1401V78.5871C130.176 76.092 130.577 72.8929 134.979 72.5231C137.454 72.3159 139.626 71.3713 139.626 68.6869C139.626 68.0631 139.495 66.8913 139.174 66.2007H136.073V66.2029Z" fill="#5D3EBC">
 </path>
 <path d="M37.0365 65.5056C28.0431 65.5056 23.3247 71.8058 23.3247 79.4782C23.3247 86.5826 27.6644 93.2102 35.5238 93.2102C39.6051 93.2102 41.9709 91.4748 42.5524 90.9669V94.4979C42.5524 98.5792 40.9662 101.299 36.8471 101.299C34.8644 101.299 33.3986 100.76 32.0396 100.11C30.8322 99.5304 29.9322 98.8621 28.7248 98.8621C25.6638 98.8621 24.8173 102.64 24.8329 102.66C27.1208 105.628 32.3894 107.804 36.8115 107.804C45.5019 107.804 50.2916 102.736 50.2916 92.6845C50.2916 92.6845 50.2916 82.5615 50.2916 80.9218C50.2893 71.7679 46.2371 65.5056 37.0365 65.5056ZM36.9986 86.3977C33.6258 86.3977 31.0461 84.2657 31.0461 79.5896C31.0461 74.6016 33.6837 72.0129 36.9986 72.0129C40.26 72.0129 42.6482 73.9778 42.6482 79.2042C42.6482 84.5776 40.0573 86.3977 36.9986 86.3977Z" fill="#5D3EBC">
 </path>
</svg>