<svg version="1.1" id="Layer_1" xmlns:x="ns_extend;" xmlns:i="ns_ai;" xmlns:graph="ns_graphs;" xmlns="http://www.w3.org/2000/svg" xmlns:xlink="http://www.w3.org/1999/xlink" x="0px" y="0px" viewBox="0 0 252.9 50" style="enable-background:new 0 0 252.9 50;" xml:space="preserve">
 <style type="text/css">
  .st0{fill:#EEB717;}
 </style>
 <metadata>
  <sfw xmlns="ns_sfw;">
   <slices>
   </slices>
   <sliceSourceBounds bottomLeftOrigin="true" height="50" width="252.9" x="-141.1" y="-232.6">
   </sliceSourceBounds>
  </sfw>
 </metadata>
 <g>
  <path d="M30.5,0.9v32.4c0,7.8-11.9,12.6-21.6,12.6c-4.2,0-6.7-0.8-8.9-1.7c1.2,0.5,4,4,4,4c2.2,0.9,4.7,1.8,8.9,1.8
		c9.7,0,21.6-4.8,21.6-12.6V4.9L30.5,0.9 M113.1,17.9l-6.1-13l-4-4L112,20L113.1,17.9 M90.5,19.2V45h-8.2l4,4h8.1V27.6 M140.6,0.9
		V45H121l3.9,4h19.7V4.9L140.6,0.9 M121,19.6L108.9,45h-6.3l3.9,4h6.4l8.1-17.1L121,19.6 M171.4,40.4V26.3c1.6-0.1,3.1,0,4.6,0.8
		c-0.6-1.2-1.4-2.2-2.5-3c-2.1-1.7-3.9-2.1-6.1-1.9v18.5C168.8,40.9,170.1,40.8,171.4,40.4 M168.9,5c-0.6,0-0.9,0.1-1.5,0.1v13
		c1.3,0,2.7-0.1,4-0.4V9.2c0.6,0,0.9-0.1,1.5-0.1c1.2,0,2.3,0.2,3.3,0.5C175.4,6.7,172.9,5,168.9,5 M193.9,27.4l-3.3-3.3
		c1.8,2.2,2.1,5,2.1,8c0,8.1-6.9,13-23,13h-22l3.9,4h22c16.1,0,23-4.9,23-13C196.7,32.7,196.3,29.6,193.9,27.4 M191.1,11.7
		c0,4.4-1.9,7.7-8.8,8.7c3.8,0.5,6.2,1.6,7.8,3.1v0c3.9-1.5,5-4.3,5-7.8c0-2.6-0.8-4.6-2.3-6.2l-3.8-3.9l0,0
		C190.3,7.2,191.1,9.2,191.1,11.7 M222.2,41.5c-1.2-3.3-1.5-8.4-1.5-14.5c0-10.8,1.2-18.6,5.9-18.6h0.4c-0.9-2.6-2.3-4-4.4-4
		c-4.8,0-5.9,7.7-5.9,18.6C216.7,33.5,217.8,41,222.2,41.5 M246.1,11.5l-2.9-2.9c3.6,3.9,5.8,8.9,5.8,14.4
		c0,12.7-11.8,22.9-26.3,22.9c-7.8,0-14.8-2.9-19.6-7.6l3.8,3.9v0c4.8,4.8,11.9,7.8,19.8,7.8c14.5,0,26.3-10.3,26.3-23
		C252.9,21,250.3,15.6,246.1,11.5 M61.1,41.1c-0.3-1-0.4-2.1-0.4-3.1v-33l-4-4v33C56.7,36.9,57.7,40.5,61.1,41.1L61.1,41.1
		 M75.2,0.9v29.6c0,10.3-4.3,15.5-19,15.5C49,46,44,44.4,40.9,41.2l0.2,0.2l3.2,3.1c3,3.6,8.3,5.5,16,5.5c14.6,0,19-5.2,19-15.4V4.9
		L75.2,0.9">
  </path>
  <path class="st0" d="M0,39.4c1.3,0.7,2.6,1.1,4,1.1c4.5,0,6.8-2.1,6.8-6V0.9h19.7v32.4c0,7.8-11.9,12.6-21.6,12.6
		c-4.2,0-6.7-0.8-8.9-1.7L0,39.4 M82.3,45V0.9H103L112,20l10-19.1h18.7V45H121V19.6L108.9,45h-6.3L90.5,19.2V45L82.3,45 M167.4,18.2
		c2-0.1,4-0.1,5.8-1.2c2-1.1,3.2-3.2,3.2-5.3c0-4.1-2.6-6.7-7.5-6.7c-0.6,0-0.9,0.1-1.5,0.1L167.4,18.2L167.4,18.2z M167.4,40.7
		c2.5,0.3,4.7-0.1,6.8-2.1c1.8-1.7,2.8-4,2.8-6.7c0-3.2-1.3-6-3.6-7.8c-2.1-1.7-3.9-2.1-6.1-1.9L167.4,40.7L167.4,40.7z M147.7,45.1
		V0.9h21.9c12,0,21.5,2,21.5,10.8c0,4.4-1.9,7.7-8.8,8.7c9.4,1.2,10.5,6.2,10.4,11.7c0,8.1-6.9,13-23,13
		C169.7,45.1,147.7,45.1,147.7,45.1z M222.6,41.6c4.7,0,5.9-7.8,5.9-18.6c0-10.9-1.2-18.6-5.9-18.6c-4.8,0-5.9,7.8-5.9,18.6
		C216.7,33.8,217.9,41.6,222.6,41.6 M196.3,23c0-12.7,11.8-23,26.3-23c14.5,0,26.3,10.3,26.3,23s-11.8,22.9-26.3,22.9
		C208.1,45.9,196.3,35.6,196.3,23 M62,41.2c-4.1,0-5.2-4.1-5.2-7.3v-33H37.1v29.6c0,10.1,6.1,15.5,19.1,15.5c14.6,0,19-5.2,19-15.5
		V0.9h-8v33C67.2,37.1,66.1,41.2,62,41.2">
  </path>
 </g>
</svg>